<svg width="48" height="48" viewBox="0 0 48 48" fill="none" xmlns="http://www.w3.org/2000/svg">
<path fill-rule="evenodd" clip-rule="evenodd" d="M8.00001 16C6.89544 16 6.00001 16.8954 6.00001 18V38C6.00001 39.1046 6.89544 40 8.00001 40H40C41.1046 40 42 39.1046 42 38V18C42 16.8954 41.1046 16 40 16H8.00001ZM2.00001 18C2.00001 14.6863 4.6863 12 8.00001 12H40C43.3137 12 46 14.6863 46 18V38C46 41.3137 43.3137 44 40 44H8.00001C4.6863 44 2.00001 41.3137 2.00001 38V18Z" fill="#9694E0"/>
<path fill-rule="evenodd" clip-rule="evenodd" d="M15.7574 5.75736C16.8826 4.63214 18.4087 4 20 4H28C29.5913 4 31.1174 4.63214 32.2427 5.75736C33.3679 6.88258 34 8.4087 34 10V42C34 43.1046 33.1046 44 32 44C30.8954 44 30 43.1046 30 42V10C30 9.46957 29.7893 8.96086 29.4142 8.58579C29.0392 8.21071 28.5304 8 28 8H20C19.4696 8 18.9609 8.21071 18.5858 8.58579C18.2107 8.96086 18 9.46957 18 10V42C18 43.1046 17.1046 44 16 44C14.8954 44 14 43.1046 14 42V10C14 8.4087 14.6322 6.88258 15.7574 5.75736Z" fill="#9694E0"/>
</svg>
