<svg width="94" height="94" viewBox="0 0 94 94" fill="none" xmlns="http://www.w3.org/2000/svg">
<g id="Group 1733">
<path id="Vector" d="M93.6353 41.7401C92.7065 48.3548 89.9518 54.5794 85.6806 59.7149C81.4094 64.8505 75.7909 68.6934 69.4563 70.812C63.1216 72.9307 56.3217 73.2412 49.8204 71.7086C43.319 70.176 37.3737 66.861 32.6523 62.1361C27.9309 57.4112 24.6205 51.4634 23.0928 44.9609C21.565 38.4584 21.8806 31.6587 24.004 25.3257C26.1274 18.9926 29.9745 13.377 35.1132 9.1097C40.252 4.84236 46.4787 2.09232 53.0941 1.16847C51.2279 0.949306 49.3507 0.837689 47.4718 0.834167C38.2681 0.834169 29.2711 3.56377 21.6189 8.6777C13.9668 13.7916 8.00313 21.0601 4.48242 29.5638C0.961702 38.0675 0.0420653 47.4243 1.83983 56.4508C3.6376 65.4772 8.072 73.7677 14.5821 80.2735C21.0923 86.7794 29.3856 91.2084 38.4132 93.0003C47.4408 94.7921 56.797 93.8664 65.2984 90.3401C73.7998 86.8138 81.0644 80.8455 86.1733 73.1899C91.2823 65.5344 94.006 56.5357 94 47.332C94.0014 45.462 93.8796 43.594 93.6353 41.7401Z" fill="#5EC6C6"/>
<path id="Vector_2" d="M56.2926 30.4576L47.2058 33.679L56.2926 36.9004L52.1595 45.6226L60.8512 41.4894L64.0726 50.5459L67.294 41.4894L76.0162 45.6226L71.883 36.9004L80.9395 33.679L71.883 30.4576L76.0162 21.7355L67.294 25.899L64.0726 16.8122L60.8512 25.899L52.1595 21.7355L56.2926 30.4576Z" fill="#5EC6C6"/>
</g>
</svg>
