<svg width="77" height="99" viewBox="0 0 77 99" fill="none" xmlns="http://www.w3.org/2000/svg">
<g id="Group 1738">
<path id="Vector" d="M17.2376 64.9615V98.9752L20.4812 96.9416V66.8061H22.3018V95.8033L38.7864 85.4777L55.2664 95.8033V69.9556L57.0915 67.706V96.9416L60.3351 98.9752V65.8613L52.077 68.1109L39.7938 70.8104H28.9019L17.2376 64.9615Z" fill="#5EC6C6"/>
<path id="Vector_2" d="M74.7735 38.3491C74.7735 34.9658 77.6692 31.2449 76.8335 28.1225C75.9661 24.8921 71.566 23.115 69.9216 20.285C68.2772 17.455 68.8916 12.7399 66.556 10.4138C64.2204 8.08774 59.5222 8.71762 56.6174 7.05743C53.7126 5.39724 52.014 1.04205 48.7704 0.178208C45.6487 -0.658637 41.9037 2.22533 38.5019 2.22533C35.1002 2.22533 31.3687 -0.658637 28.2335 0.178208C24.9899 1.04205 23.2055 5.42423 20.3504 7.05743C17.4953 8.69063 12.7744 8.08324 10.4388 10.4138C8.10325 12.7444 8.74926 17.419 7.08228 20.2715C5.4153 23.124 1.0423 24.8921 0.174924 28.1225C-0.665342 31.2449 2.23042 34.9658 2.23042 38.3491C2.23042 41.7325 -0.665342 45.4668 0.174924 48.5757C1.0423 51.8106 5.4424 53.5653 7.08228 56.4133C8.72216 59.2612 8.11228 63.9584 10.4524 66.3114C12.7925 68.6645 17.4862 67.9626 20.3504 69.6408C23.2145 71.319 24.9899 75.6607 28.2335 76.511C31.3687 77.3479 35.1047 74.4639 38.5019 74.4639C41.8991 74.4639 45.6487 77.3569 48.7704 76.511C52.0185 75.6517 53.7984 71.2695 56.64 69.6318C59.4815 67.9941 64.2159 68.606 66.5786 66.2754C68.9413 63.9449 68.2772 59.2747 69.9442 56.4043C71.6112 53.5338 75.9887 51.7971 76.8561 48.5667C77.6692 45.4668 74.7735 41.737 74.7735 38.3491ZM38.5019 66.2844C32.9545 66.2836 27.5318 64.6444 22.9197 61.5743C18.3075 58.5042 14.7131 54.141 12.5907 49.0364C10.4684 43.9318 9.91361 38.3151 10.9964 32.8965C12.0792 27.4778 14.751 22.5007 18.674 18.5943C22.597 14.6879 27.595 12.0278 33.0359 10.9502C38.4769 9.87272 44.1165 10.4262 49.2416 12.5407C54.3667 14.6552 58.7472 18.2357 61.8291 22.8296C64.911 27.4234 66.556 32.8242 66.556 38.3491C66.556 42.018 65.8303 45.651 64.4204 49.0406C63.0105 52.4301 60.944 55.5099 58.3389 58.104C55.7338 60.6981 52.6411 62.7557 49.2374 64.1593C45.8338 65.5629 42.1858 66.285 38.5019 66.2844Z" fill="#5EC6C6"/>
<path id="Vector_3" d="M34.4991 34.781L35.2219 30.4393L32.037 27.3889L36.4055 26.7275L38.339 22.7728L40.3177 26.705L44.6907 27.3124L41.5465 30.4033L42.319 34.7315L38.3977 32.7069L34.4991 34.781Z" fill="#5EC6C6"/>
<path id="Vector_4" d="M52.5467 39.7392L51.8871 44.0899L55.7542 41.9618L59.7025 43.9324L58.8713 39.6132L61.9703 36.4818L57.5883 35.9329L55.5554 32.0276L53.6806 36.0139L49.3211 36.7293L52.5467 39.7392Z" fill="#5EC6C6"/>
<path id="Vector_5" d="M14.351 36.8733L17.6443 39.8022L17.0932 44.1709L20.906 41.9528L24.904 43.829L23.9644 39.5278L26.9912 36.3244L22.5956 35.8834L20.4678 32.0276L18.6879 36.0499L14.351 36.8733Z" fill="#5EC6C6"/>
</g>
</svg>
