<svg width="84" height="103" viewBox="0 0 84 103" fill="none" xmlns="http://www.w3.org/2000/svg">
<g id="Group 1737">
<path id="Vector" fill-rule="evenodd" clip-rule="evenodd" d="M43.6112 1.37603C42.97 1.05568 42.2631 0.888916 41.5463 0.888916C40.8296 0.888916 40.1227 1.05568 39.4815 1.37603L2.55233 19.8406C1.78529 20.224 1.1402 20.8134 0.689379 21.5428C0.238562 22.2722 -0.000152428 23.1128 7.30222e-08 23.9703V51.6679C7.30222e-08 63.9573 3.97183 74.2414 11.0929 82.6711C18.1419 91.0067 28.0881 97.3121 39.7986 102.102C40.9187 102.561 42.174 102.561 43.2941 102.102C55.0046 97.3121 64.9508 91.0067 71.9998 82.6711C79.1208 74.2469 83.0927 63.9573 83.0927 51.6679V23.9703C83.0928 23.1128 82.8541 22.2722 82.4033 21.5428C81.9525 20.8134 81.3074 20.224 80.5403 19.8406L43.6112 1.37603ZM9.23298 51.6679V26.8232L41.5463 10.6658L73.8597 26.8232V51.6679C73.8597 61.7886 70.6523 69.9635 64.9494 76.7106C59.486 83.1738 51.5729 88.507 41.5449 92.8237C31.5184 88.507 23.6052 83.1738 18.1405 76.7106C12.4404 69.9635 9.23298 61.7886 9.23298 51.6679ZM36.4915 80.0911L61.2116 48.7001C63.1601 46.2419 62.278 44.2491 59.7741 44.2491H47.2036L50.7738 24.9591C51.2377 22.2697 48.3627 21.0178 46.6011 23.1976L21.9323 54.5886C19.9381 57.0467 20.8244 59.0867 23.3698 59.0867H35.8891L32.366 78.3752C31.8522 81.0647 34.73 82.3194 36.4915 80.0911Z" fill="#5EC6C6"/>
</g>
</svg>
