<svg width="66" height="44" viewBox="0 0 66 44" fill="none" xmlns="http://www.w3.org/2000/svg">
<path d="M10.3818 32.276L19.8587 19.2399M27.019 17.6688L38.7704 25.7792M55.5761 11.6815L46.5204 23.9533M10.0448 32.7856C9.20245 32.1486 8.19158 31.8089 7.05435 31.8089C4.27446 31.8089 2 34.1019 2 36.9045C2 39.707 4.27446 42 7.05435 42C9.83424 42 12.1087 39.707 12.1087 36.9045C12.1087 35.2059 11.2663 33.7197 10.0448 32.7856ZM58.9457 2C56.1658 2 53.8913 4.29299 53.8913 7.09554C53.8913 8.75159 54.6916 10.2378 55.913 11.172C56.7554 11.8089 57.8084 12.1911 58.9457 12.1911C61.7255 12.1911 64 9.89809 64 7.09554C64 4.29299 61.7677 2 58.9457 2ZM23.0177 9.81316C20.2378 9.81316 17.9633 12.1062 17.9633 14.9087C17.9633 16.6072 18.7636 18.0934 20.0272 19.0276C20.8696 19.6645 21.8804 20.0042 23.0177 20.0042C24.7446 20.0042 26.2609 19.1125 27.1875 17.7962C27.7351 16.9894 28.072 16.0127 28.072 14.9087C28.072 12.1062 25.7976 9.81316 23.0177 9.81316ZM46.0571 24.5902C45.2147 23.9533 44.1617 23.5711 43.0245 23.5711C41.2976 23.5711 39.7391 24.4628 38.8546 25.7792C38.3071 26.586 37.9701 27.6051 37.9701 28.6667C37.9701 31.4692 40.2446 33.7622 43.0245 33.7622C45.8043 33.7622 48.0788 31.4692 48.0788 28.6667C48.1209 27.0106 47.3206 25.5244 46.0571 24.5902Z" stroke="#5EC6C6" stroke-width="4" stroke-miterlimit="10"/>
</svg>
