<svg width="48" height="48" viewBox="0 0 48 48" fill="none" xmlns="http://www.w3.org/2000/svg">
<path fill-rule="evenodd" clip-rule="evenodd" d="M8.92893 30.9289C10.8043 29.0536 13.3478 28 16 28H32C34.6522 28 37.1957 29.0536 39.0711 30.9289C40.9464 32.8043 42 35.3478 42 38V42C42 43.1046 41.1046 44 40 44C38.8954 44 38 43.1046 38 42V38C38 36.4087 37.3679 34.8826 36.2426 33.7574C35.1174 32.6321 33.5913 32 32 32H16C14.4087 32 12.8826 32.6321 11.7574 33.7574C10.6321 34.8826 10 36.4087 10 38V42C10 43.1046 9.10457 44 8 44C6.89543 44 6 43.1046 6 42V38C6 35.3478 7.05357 32.8043 8.92893 30.9289Z" fill="#E2AD5D"/>
<path fill-rule="evenodd" clip-rule="evenodd" d="M24 8C20.6863 8 18 10.6863 18 14C18 17.3137 20.6863 20 24 20C27.3137 20 30 17.3137 30 14C30 10.6863 27.3137 8 24 8ZM14 14C14 8.47715 18.4772 4 24 4C29.5229 4 34 8.47715 34 14C34 19.5228 29.5229 24 24 24C18.4772 24 14 19.5228 14 14Z" fill="#E2AD5D"/>
</svg>
